{
  "accessors": [
    {
      "bufferView": 2,
      "componentType": 5126,
      "count": 265,
      "max": [
        2.5622763633728027,
        9.533126831054688,
        2.501723527908325
      ],
      "min": [
        -2.5622763633728027,
        0.026815414428710938,
        -2.621067762374878
      ],
      "type": "VEC3"
    },
    {
      "bufferView": 2,
      "byteOffset": 3180,
      "componentType": 5126,
      "count": 265,
      "max": [
        0.9950703978538513,
        1.0,
        0.9932504296302795
      ],
      "min": [
        -0.9950703978538513,
        -0.4924508333206177,
        -0.9948025941848755
      ],
      "type": "VEC3"
    },
    {
      "bufferView": 1,
      "componentType": 5126,
      "count": 265,
      "max": [
        0.0,
        0.0
      ],
      "min": [
        0.0,
        0.0
      ],
      "type": "VEC2"
    },
    {
      "bufferView": 0,
      "componentType": 5125,
      "count": 1536,
      "type": "SCALAR"
    },
    {
      "bufferView": 2,
      "byteOffset": 6360,
      "componentType": 5126,
      "count": 645,
      "max": [
        2.2017743587493896,
        9.762795448303223,
        2.1437466144561768
      ],
      "min": [
        -2.2017743587493896,
        9.486513137817383,
        -2.2598021030426025
      ],
      "type": "VEC3"
    },
    {
      "bufferView": 2,
      "byteOffset": 14100,
      "componentType": 5126,
      "count": 645,
      "max": [
        0.9836607575416565,
        1.0,
        0.9837113618850708
      ],
      "min": [
        -0.9836607575416565,
        -1.0,
        -0.9838552474975586
      ],
      "type": "VEC3"
    },
    {
      "bufferView": 1,
      "byteOffset": 2120,
      "componentType": 5126,
      "count": 645,
      "max": [
        0.0,
        0.0
      ],
      "min": [
        0.0,
        0.0
      ],
      "type": "VEC2"
    },
    {
      "bufferView": 0,
      "byteOffset": 6144,
      "componentType": 5125,
      "count": 3720,
      "type": "SCALAR"
    },
    {
      "bufferView": 2,
      "byteOffset": 21840,
      "componentType": 5126,
      "count": 60,
      "max": [
        0.432521790266037,
        9.490811347961426,
        -0.7203830480575562
      ],
      "min": [
        -0.43252241611480713,
        9.486513137817383,
        -1.3627187013626099
      ],
      "type": "VEC3"
    },
    {
      "bufferView": 2,
      "byteOffset": 22560,
      "componentType": 5126,
      "count": 60,
      "max": [
        0.015198269858956337,
        -0.9935640692710876,
        -0.0
      ],
      "min": [
        -0.014526975341141224,
        -1.0,
        -0.11224746704101563
      ],
      "type": "VEC3"
    },
    {
      "bufferView": 1,
      "byteOffset": 7280,
      "componentType": 5126,
      "count": 60,
      "max": [
        0.0,
        0.0
      ],
      "min": [
        0.0,
        0.0
      ],
      "type": "VEC2"
    },
    {
      "bufferView": 0,
      "byteOffset": 21024,
      "componentType": 5125,
      "count": 279,
      "type": "SCALAR"
    },
    {
      "bufferView": 2,
      "byteOffset": 23280,
      "componentType": 5126,
      "count": 287,
      "max": [
        0.5770571827888489,
        9.582507133483887,
        1.2974050045013428
      ],
      "min": [
        -0.5770572423934937,
        9.477558135986328,
        -0.5702201128005981
      ],
      "type": "VEC3"
    },
    {
      "bufferView": 2,
      "byteOffset": 26724,
      "componentType": 5126,
      "count": 287,
      "max": [
        0.9999997615814209,
        0.0,
        1.0
      ],
      "min": [
        -0.9999997615814209,
        -1.0,
        -1.0
      ],
      "type": "VEC3"
    },
    {
      "bufferView": 1,
      "byteOffset": 7760,
      "componentType": 5126,
      "count": 287,
      "max": [
        0.0,
        0.0
      ],
      "min": [
        0.0,
        0.0
      ],
      "type": "VEC2"
    },
    {
      "bufferView": 0,
      "byteOffset": 22140,
      "componentType": 5125,
      "count": 1512,
      "type": "SCALAR"
    },
    {
      "bufferView": 2,
      "byteOffset": 30168,
      "componentType": 5126,
      "count": 105,
      "max": [
        0.17926651239395142,
        9.62081527709961,
        0.15563473105430603
      ],
      "min": [
        -0.1792665272951126,
        9.545857429504395,
        -0.22041743993759155
      ],
      "type": "VEC3"
    },
    {
      "bufferView": 2,
      "byteOffset": 31428,
      "componentType": 5126,
      "count": 105,
      "max": [
        0.958077073097229,
        1.0,
        0.9553007483482361
      ],
      "min": [
        -0.9580855369567871,
        -0.7316010594367981,
        -0.9553007483482361
      ],
      "type": "VEC3"
    },
    {
      "bufferView": 1,
      "byteOffset": 10056,
      "componentType": 5126,
      "count": 105,
      "max": [
        0.0,
        0.0
      ],
      "min": [
        0.0,
        0.0
      ],
      "type": "VEC2"
    },
    {
      "bufferView": 0,
      "byteOffset": 28188,
      "componentType": 5125,
      "count": 576,
      "type": "SCALAR"
    }
  ],
  "asset": {
    "extras": {
      "author": "Firdaus Sahak (https://sketchfab.com/firdaussahak)",
      "license": "CC-BY-4.0 (http://creativecommons.org/licenses/by/4.0/)",
      "source": "https://sketchfab.com/3d-models/soda-can-bf7902fb64644da3beb0ce1fce07f4aa",
      "title": "Soda Can"
    },
    "generator": "Sketchfab-12.56.0",
    "version": "2.0"
  },
  "bufferViews": [
    {
      "buffer": 0,
      "byteLength": 30492,
      "name": "floatBufferViews",
      "target": 34963
    },
    {
      "buffer": 0,
      "byteLength": 10896,
      "byteOffset": 30492,
      "byteStride": 8,
      "name": "floatBufferViews",
      "target": 34962
    },
    {
      "buffer": 0,
      "byteLength": 32688,
      "byteOffset": 41388,
      "byteStride": 12,
      "name": "floatBufferViews",
      "target": 34962
    }
  ],
  "buffers": [
    {
      "byteLength": 74076,
      "uri": "scene.bin"
    }
  ],
  "materials": [
    {
      "doubleSided": true,
      "name": "Wrap",
      "pbrMetallicRoughness": {
        "baseColorFactor": [
          0.8,
          0.0216078,
          0.0164056,
          1.0
        ],
        "metallicFactor": 0.8,
        "roughnessFactor": 0.4
      }
    },
    {
      "doubleSided": true,
      "name": "Metal",
      "pbrMetallicRoughness": {
        "baseColorFactor": [
          0.369414,
          0.369414,
          0.369414,
          1.0
        ],
        "metallicFactor": 0.8,
        "roughnessFactor": 0.4
      }
    }
  ],
  "meshes": [
    {
      "name": "Object_0",
      "primitives": [
        {
          "attributes": {
            "NORMAL": 1,
            "POSITION": 0,
            "TEXCOORD_0": 2
          },
          "indices": 3,
          "material": 0,
          "mode": 4
        }
      ]
    },
    {
      "name": "Object_1",
      "primitives": [
        {
          "attributes": {
            "NORMAL": 5,
            "POSITION": 4,
            "TEXCOORD_0": 6
          },
          "indices": 7,
          "material": 1,
          "mode": 4
        }
      ]
    },
    {
      "name": "Object_2",
      "primitives": [
        {
          "attributes": {
            "NORMAL": 9,
            "POSITION": 8,
            "TEXCOORD_0": 10
          },
          "indices": 11,
          "material": 1,
          "mode": 4
        }
      ]
    },
    {
      "name": "Object_3",
      "primitives": [
        {
          "attributes": {
            "NORMAL": 13,
            "POSITION": 12,
            "TEXCOORD_0": 14
          },
          "indices": 15,
          "material": 1,
          "mode": 4
        }
      ]
    },
    {
      "name": "Object_4",
      "primitives": [
        {
          "attributes": {
            "NORMAL": 17,
            "POSITION": 16,
            "TEXCOORD_0": 18
          },
          "indices": 19,
          "material": 1,
          "mode": 4
        }
      ]
    }
  ],
  "nodes": [
    {
      "children": [
        1
      ],
      "matrix": [
        1.0,
        0.0,
        0.0,
        0.0,
        0.0,
        2.220446049250313e-16,
        -1.0,
        0.0,
        0.0,
        1.0,
        2.220446049250313e-16,
        0.0,
        0.0,
        0.0,
        0.0,
        1.0
      ],
      "name": "Sketchfab_model"
    },
    {
      "children": [
        2
      ],
      "name": "root"
    },
    {
      "children": [
        3
      ],
      "matrix": [
        1.0,
        0.0,
        0.0,
        0.0,
        0.0,
        2.220446049250313e-16,
        1.0,
        0.0,
        0.0,
        -1.0,
        2.220446049250313e-16,
        0.0,
        0.0,
        0.0,
        0.0,
        1.0
      ],
      "name": "GLTF_SceneRootNode"
    },
    {
      "children": [
        4,
        5
      ],
      "name": "Soda_can_4"
    },
    {
      "mesh": 0,
      "name": "Object_4"
    },
    {
      "children": [
        6,
        7,
        9,
        11
      ],
      "name": "Top_3"
    },
    {
      "mesh": 1,
      "name": "Object_6"
    },
    {
      "children": [
        8
      ],
      "name": "Cover_0"
    },
    {
      "mesh": 2,
      "name": "Object_8"
    },
    {
      "children": [
        10
      ],
      "name": "Pick_1"
    },
    {
      "mesh": 3,
      "name": "Object_10"
    },
    {
      "children": [
        12
      ],
      "name": "Pin_2"
    },
    {
      "mesh": 4,
      "name": "Object_12"
    }
  ],
  "scene": 0,
  "scenes": [
    {
      "name": "Sketchfab_Scene",
      "nodes": [
        0
      ]
    }
  ]
}
