{
  "accessors": [
    {
      "bufferView": 2,
      "componentType": 5126,
      "count": 3959,
      "max": [
        25.001588821411133,
        14.782238006591797,
        0.5496292114257813
      ],
      "min": [
        -17.570341110229492,
        -27.789691925048828,
        -76.80006408691406
      ],
      "type": "VEC3"
    },
    {
      "bufferView": 2,
      "byteOffset": 47508,
      "componentType": 5126,
      "count": 3959,
      "max": [
        1.0,
        1.0,
        1.0
      ],
      "min": [
        -1.0,
        -1.0,
        -1.0
      ],
      "type": "VEC3"
    },
    {
      "bufferView": 1,
      "componentType": 5126,
      "count": 3959,
      "max": [
        1.0,
        15.471475601196289
      ],
      "min": [
        0.0,
        0.0
      ],
      "type": "VEC2"
    },
    {
      "bufferView": 0,
      "componentType": 5125,
      "count": 15162,
      "type": "SCALAR"
    },
    {
      "bufferView": 2,
      "byteOffset": 95016,
      "componentType": 5126,
      "count": 1156,
      "max": [
        25.050886154174805,
        14.831527709960938,
        -1.3316192626953125
      ],
      "min": [
        -17.619640350341797,
        -27.838998794555664,
        -70.65026092529297
      ],
      "type": "VEC3"
    },
    {
      "bufferView": 2,
      "byteOffset": 108888,
      "componentType": 5126,
      "count": 1156,
      "max": [
        1.0,
        1.0,
        0.6309648752212524
      ],
      "min": [
        -1.0,
        -1.0,
        -0.6699033975601196
      ],
      "type": "VEC3"
    },
    {
      "bufferView": 1,
      "byteOffset": 31672,
      "componentType": 5126,
      "count": 1156,
      "max": [
        1.0,
        15.094676971435547
      ],
      "min": [
        0.0,
        1.2309492826461792
      ],
      "type": "VEC2"
    },
    {
      "bufferView": 0,
      "byteOffset": 60648,
      "componentType": 5125,
      "count": 6432,
      "type": "SCALAR"
    }
  ],
  "asset": {
    "extras": {
      "author": "Regulus7 (https://sketchfab.com/Regulus7)",
      "license": "CC-BY-4.0 (http://creativecommons.org/licenses/by/4.0/)",
      "source": "https://sketchfab.com/3d-models/soda-can-4b20d55f60474ed1995509ef7292b743",
      "title": "Soda Can"
    },
    "generator": "Sketchfab-13.17.0",
    "version": "2.0"
  },
  "bufferViews": [
    {
      "buffer": 0,
      "byteLength": 86376,
      "name": "floatBufferViews",
      "target": 34963
    },
    {
      "buffer": 0,
      "byteLength": 40920,
      "byteOffset": 86376,
      "byteStride": 8,
      "name": "floatBufferViews",
      "target": 34962
    },
    {
      "buffer": 0,
      "byteLength": 122760,
      "byteOffset": 127296,
      "byteStride": 12,
      "name": "floatBufferViews",
      "target": 34962
    }
  ],
  "buffers": [
    {
      "byteLength": 250056,
      "uri": "scene.bin"
    }
  ],
  "materials": [
    {
      "doubleSided": true,
      "name": "gray",
      "pbrMetallicRoughness": {
        "baseColorFactor": [
          0.134567,
          0.141258,
          0.136223,
          1.0
        ],
        "metallicFactor": 0.0,
        "roughnessFactor": 0.9688131202174033
      }
    },
    {
      "doubleSided": true,
      "name": "darkgreen",
      "pbrMetallicRoughness": {
        "baseColorFactor": [
          0.00580164,
          0.102238,
          0.00321712,
          1.0
        ],
        "metallicFactor": 0.0,
        "roughnessFactor": 0.9833219913082881
      }
    }
  ],
  "meshes": [
    {
      "name": "Can2_gray_0",
      "primitives": [
        {
          "attributes": {
            "NORMAL": 1,
            "POSITION": 0,
            "TEXCOORD_0": 2
          },
          "indices": 3,
          "material": 0,
          "mode": 4
        }
      ]
    },
    {
      "name": "Can2_darkgreen_0",
      "primitives": [
        {
          "attributes": {
            "NORMAL": 5,
            "POSITION": 4,
            "TEXCOORD_0": 6
          },
          "indices": 7,
          "material": 1,
          "mode": 4
        }
      ]
    }
  ],
  "nodes": [
    {
      "children": [
        1
      ],
      "matrix": [
        1.0,
        0.0,
        0.0,
        0.0,
        0.0,
        2.220446049250313e-16,
        -1.0,
        0.0,
        0.0,
        1.0,
        2.220446049250313e-16,
        0.0,
        0.0,
        0.0,
        0.0,
        1.0
      ],
      "name": "Sketchfab_model"
    },
    {
      "children": [
        2
      ],
      "matrix": [
        0.009999999776482582,
        0.0,
        0.0,
        0.0,
        0.0,
        0.0,
        0.009999999776482582,
        0.0,
        0.0,
        -0.009999999776482582,
        0.0,
        0.0,
        0.0,
        0.0,
        0.0,
        1.0
      ],
      "name": "04c230b4d4d64a07bfedfb805a8a07f6.fbx"
    },
    {
      "children": [
        3
      ],
      "name": "RootNode"
    },
    {
      "children": [
        4,
        5
      ],
      "matrix": [
        19.999998092651367,
        0.0,
        0.0,
        0.0,
        -0.0,
        -3.258413277090093e-06,
        -19.999998092651104,
        0.0,
        0.0,
        19.999998092651104,
        -3.258413277090093e-06,
        0.0,
        -74.31297302246094,
        768.04541015625,
        -208.9957275390625,
        1.0
      ],
      "name": "Can2"
    },
    {
      "mesh": 0,
      "name": "Can2_gray_0"
    },
    {
      "mesh": 1,
      "name": "Can2_darkgreen_0"
    }
  ],
  "scene": 0,
  "scenes": [
    {
      "name": "Sketchfab_Scene",
      "nodes": [
        0
      ]
    }
  ]
}
