{
  "accessors": [
    {
      "bufferView": 2,
      "componentType": 5126,
      "count": 220,
      "max": [
        38.02105712890625,
        36.160064697265625,
        185.205810546875
      ],
      "min": [
        -38.0211181640625,
        -36.1600456237793,
        11.087821960449219
      ],
      "type": "VEC3"
    },
    {
      "bufferView": 2,
      "byteOffset": 2640,
      "componentType": 5126,
      "count": 220,
      "max": [
        0.9999735355377197,
        0.9970726370811462,
        1.0
      ],
      "min": [
        -0.9999735951423645,
        -0.9970726370811462,
        -1.0
      ],
      "type": "VEC3"
    },
    {
      "bufferView": 1,
      "componentType": 5126,
      "count": 220,
      "max": [
        0.65625,
        -0.0019120000069960952
      ],
      "min": [
        0.34375,
        -0.998088002204895
      ],
      "type": "VEC2"
    },
    {
      "bufferView": 0,
      "componentType": 5125,
      "count": 516,
      "type": "SCALAR"
    },
    {
      "bufferView": 2,
      "byteOffset": 5280,
      "componentType": 5126,
      "count": 90,
      "max": [
        46.33770751953125,
        44.06993865966797,
        182.20755004882813
      ],
      "min": [
        -46.33770751953125,
        -44.06993865966797,
        17.554725646972656
      ],
      "type": "VEC3"
    },
    {
      "bufferView": 2,
      "byteOffset": 6360,
      "componentType": 5126,
      "count": 90,
      "max": [
        0.9999997615814209,
        0.9650951027870178,
        0.43048614263534546
      ],
      "min": [
        -0.9999989867210388,
        -0.9676023721694946,
        -0.8212695717811584
      ],
      "type": "VEC3"
    },
    {
      "bufferView": 1,
      "byteOffset": 1760,
      "componentType": 5126,
      "count": 90,
      "max": [
        0.612500011920929,
        -0.3264620006084442
      ],
      "min": [
        0.38749998807907104,
        -0.6819509863853455
      ],
      "type": "VEC2"
    },
    {
      "bufferView": 0,
      "byteOffset": 2064,
      "componentType": 5125,
      "count": 360,
      "type": "SCALAR"
    },
    {
      "bufferView": 2,
      "byteOffset": 7440,
      "componentType": 5126,
      "count": 40,
      "max": [
        46.33770751953125,
        44.06993865966797,
        144.2509765625
      ],
      "min": [
        -46.33770751953125,
        -44.06993865966797,
        36.240386962890625
      ],
      "type": "VEC3"
    },
    {
      "bufferView": 2,
      "byteOffset": 7920,
      "componentType": 5126,
      "count": 40,
      "max": [
        0.9999997615814209,
        0.9650951027870178,
        -0.0
      ],
      "min": [
        -0.9999989867210388,
        -0.9676023721694946,
        -0.0
      ],
      "type": "VEC3"
    },
    {
      "bufferView": 1,
      "byteOffset": 2480,
      "componentType": 5126,
      "count": 40,
      "max": [
        0.612500011920929,
        -0.36680498719215393
      ],
      "min": [
        0.38749998807907104,
        -0.6000019907951355
      ],
      "type": "VEC2"
    },
    {
      "bufferView": 0,
      "byteOffset": 3504,
      "componentType": 5125,
      "count": 120,
      "type": "SCALAR"
    }
  ],
  "asset": {
    "extras": {
      "author": "margaux.laurier (https://sketchfab.com/margaux.laurier)",
      "license": "CC-BY-4.0 (http://creativecommons.org/licenses/by/4.0/)",
      "source": "https://sketchfab.com/3d-models/soda-can-f24c04715b874327baf86b74334c36d9",
      "title": "Soda Can"
    },
    "generator": "Sketchfab-12.66.0",
    "version": "2.0"
  },
  "bufferViews": [
    {
      "buffer": 0,
      "byteLength": 3984,
      "name": "floatBufferViews",
      "target": 34963
    },
    {
      "buffer": 0,
      "byteLength": 2800,
      "byteOffset": 3984,
      "byteStride": 8,
      "name": "floatBufferViews",
      "target": 34962
    },
    {
      "buffer": 0,
      "byteLength": 8400,
      "byteOffset": 6784,
      "byteStride": 12,
      "name": "floatBufferViews",
      "target": 34962
    }
  ],
  "buffers": [
    {
      "byteLength": 15184,
      "uri": "scene.bin"
    }
  ],
  "materials": [
    {
      "doubleSided": true,
      "name": "blinn3SG",
      "pbrMetallicRoughness": {
        "baseColorFactor": [
          0.34,
          0.34,
          0.34,
          1.0
        ],
        "metallicFactor": 0.0,
        "roughnessFactor": 0.969948
      }
    },
    {
      "doubleSided": true,
      "name": "blinn7SG",
      "pbrMetallicRoughness": {
        "baseColorFactor": [
          0.9,
          0.06,
          0.04,
          1.0
        ],
        "metallicFactor": 0.0,
        "roughnessFactor": 0.969948
      }
    },
    {
      "doubleSided": true,
      "name": "blinn6SG",
      "pbrMetallicRoughness": {
        "metallicFactor": 0.0,
        "roughnessFactor": 0.969948
      }
    }
  ],
  "meshes": [
    {
      "name": "Object_0",
      "primitives": [
        {
          "attributes": {
            "NORMAL": 1,
            "POSITION": 0,
            "TEXCOORD_0": 2
          },
          "indices": 3,
          "material": 0,
          "mode": 4
        }
      ]
    },
    {
      "name": "Object_1",
      "primitives": [
        {
          "attributes": {
            "NORMAL": 5,
            "POSITION": 4,
            "TEXCOORD_0": 6
          },
          "indices": 7,
          "material": 1,
          "mode": 4
        }
      ]
    },
    {
      "name": "Object_2",
      "primitives": [
        {
          "attributes": {
            "NORMAL": 9,
            "POSITION": 8,
            "TEXCOORD_0": 10
          },
          "indices": 11,
          "material": 2,
          "mode": 4
        }
      ]
    }
  ],
  "nodes": [
    {
      "children": [
        1
      ],
      "matrix": [
        -3.659115899195632e-19,
        -1.5551242571581435e-18,
        -0.0016479193000122905,
        0.0,
        -1.3660227942655055e-07,
        -0.0016479193000122905,
        2.0125137445575975e-18,
        0.0,
        -0.0016479193000122905,
        1.3660227942655055e-07,
        -9.144756568072367e-20,
        0.0,
        -0.00035568614839576185,
        -98.14318847656253,
        98.15097045898435,
        1.0
      ],
      "name": "Sketchfab_model"
    },
    {
      "children": [
        2
      ],
      "name": "root"
    },
    {
      "children": [
        3
      ],
      "matrix": [
        1.0,
        0.0,
        0.0,
        0.0,
        0.0,
        2.220446049250313e-16,
        1.0,
        0.0,
        0.0,
        -1.0,
        2.220446049250313e-16,
        0.0,
        0.0,
        0.0,
        0.0,
        1.0
      ],
      "name": "GLTF_SceneRootNode"
    },
    {
      "children": [
        4
      ],
      "name": "_1"
    },
    {
      "children": [
        5
      ],
      "matrix": [
        1.0,
        0.0,
        0.0,
        0.0,
        0.0,
        1.0,
        0.0,
        0.0,
        0.0,
        0.0,
        1.0,
        0.0,
        -0.4352949857711792,
        -0.4352949857711792,
        98.10099792480469,
        1.0
      ],
      "name": "_2"
    },
    {
      "children": [
        6
      ],
      "matrix": [
        1.0,
        0.0,
        0.0,
        0.0,
        0.0,
        1.0,
        0.0,
        0.0,
        0.0,
        0.0,
        1.0,
        0.0,
        0.4352949857711792,
        0.4352949857711792,
        -98.10099792480469,
        1.0
      ],
      "name": "_3"
    },
    {
      "children": [
        7,
        8,
        9
      ],
      "name": "node-0_0"
    },
    {
      "mesh": 0,
      "name": "Object_7"
    },
    {
      "mesh": 1,
      "name": "Object_8"
    },
    {
      "mesh": 2,
      "name": "Object_9"
    }
  ],
  "scene": 0,
  "scenes": [
    {
      "name": "Sketchfab_Scene",
      "nodes": [
        0
      ]
    }
  ]
}
