{
  "accessors": [
    {
      "bufferView": 2,
      "componentType": 5126,
      "count": 20098,
      "max": [
        3.7398838996887207,
        13.81113052368164,
        3.7325732707977295
      ],
      "min": [
        -3.739884376525879,
        0.02755933441221714,
        -3.7201476097106934
      ],
      "type": "VEC3"
    },
    {
      "bufferView": 2,
      "byteOffset": 241176,
      "componentType": 5126,
      "count": 20098,
      "max": [
        1.0,
        1.0,
        1.0
      ],
      "min": [
        -1.0,
        -1.0,
        -1.0
      ],
      "type": "VEC3"
    },
    {
      "bufferView": 1,
      "componentType": 5126,
      "count": 20098,
      "max": [
        1.9350483417510986,
        9.34361457824707
      ],
      "min": [
        -1.7312703132629395,
        -0.00041674115345813334
      ],
      "type": "VEC2"
    },
    {
      "bufferView": 0,
      "componentType": 5125,
      "count": 73296,
      "type": "SCALAR"
    },
    {
      "bufferView": 2,
      "byteOffset": 482352,
      "componentType": 5126,
      "count": 5020,
      "max": [
        0.9194825291633606,
        13.803448677062988,
        0.9635410308837891
      ],
      "min": [
        -0.9194826483726501,
        13.701045989990234,
        -2.1133341789245605
      ],
      "type": "VEC3"
    },
    {
      "bufferView": 2,
      "byteOffset": 542592,
      "componentType": 5126,
      "count": 5020,
      "max": [
        1.0,
        1.0,
        1.0
      ],
      "min": [
        -1.0,
        -1.0,
        -1.0
      ],
      "type": "VEC3"
    },
    {
      "bufferView": 1,
      "byteOffset": 160784,
      "componentType": 5126,
      "count": 5020,
      "max": [
        2.060389995574951,
        1.040350317955017
      ],
      "min": [
        -1.0603880882263184,
        -0.12120223790407181
      ],
      "type": "VEC2"
    },
    {
      "bufferView": 0,
      "byteOffset": 293184,
      "componentType": 5125,
      "count": 24096,
      "type": "SCALAR"
    },
    {
      "bufferView": 2,
      "byteOffset": 602832,
      "componentType": 5126,
      "count": 1009,
      "max": [
        0.23905488848686218,
        13.790386199951172,
        0.2390548586845398
      ],
      "min": [
        -0.2390548437833786,
        13.69542407989502,
        -0.23905476927757263
      ],
      "type": "VEC3"
    },
    {
      "bufferView": 2,
      "byteOffset": 614940,
      "componentType": 5126,
      "count": 1009,
      "max": [
        1.0,
        1.0,
        1.0
      ],
      "min": [
        -1.0,
        -8.28211796033429e-06,
        -1.0
      ],
      "type": "VEC3"
    },
    {
      "bufferView": 1,
      "byteOffset": 200944,
      "componentType": 5126,
      "count": 1009,
      "max": [
        1.0,
        1.0
      ],
      "min": [
        0.0,
        0.0
      ],
      "type": "VEC2"
    },
    {
      "bufferView": 0,
      "byteOffset": 389568,
      "componentType": 5125,
      "count": 4320,
      "type": "SCALAR"
    }
  ],
  "asset": {
    "extras": {
      "author": "RoutineStudio (https://sketchfab.com/TheRoutine)",
      "license": "CC-BY-4.0 (http://creativecommons.org/licenses/by/4.0/)",
      "source": "https://sketchfab.com/3d-models/soda-can-f3560f1b73a1498d9313a0f10fd11ef6",
      "title": "Soda Can"
    },
    "generator": "Sketchfab-12.66.0",
    "version": "2.0"
  },
  "bufferViews": [
    {
      "buffer": 0,
      "byteLength": 406848,
      "name": "floatBufferViews",
      "target": 34963
    },
    {
      "buffer": 0,
      "byteLength": 209016,
      "byteOffset": 406848,
      "byteStride": 8,
      "name": "floatBufferViews",
      "target": 34962
    },
    {
      "buffer": 0,
      "byteLength": 627048,
      "byteOffset": 615864,
      "byteStride": 12,
      "name": "floatBufferViews",
      "target": 34962
    }
  ],
  "buffers": [
    {
      "byteLength": 1242912,
      "uri": "scene.bin"
    }
  ],
  "materials": [
    {
      "doubleSided": true,
      "name": "lambert1",
      "pbrMetallicRoughness": {
        "baseColorFactor": [
          0.5,
          0.5,
          0.5,
          1.0
        ],
        "metallicFactor": 0.0,
        "roughnessFactor": 0.6
      }
    }
  ],
  "meshes": [
    {
      "name": "pCylinder10_lambert1_0",
      "primitives": [
        {
          "attributes": {
            "NORMAL": 1,
            "POSITION": 0,
            "TEXCOORD_0": 2
          },
          "indices": 3,
          "material": 0,
          "mode": 4
        }
      ]
    },
    {
      "name": "polySurface2_lambert1_0",
      "primitives": [
        {
          "attributes": {
            "NORMAL": 5,
            "POSITION": 4,
            "TEXCOORD_0": 6
          },
          "indices": 7,
          "material": 0,
          "mode": 4
        }
      ]
    },
    {
      "name": "polySurface1_lambert1_0",
      "primitives": [
        {
          "attributes": {
            "NORMAL": 9,
            "POSITION": 8,
            "TEXCOORD_0": 10
          },
          "indices": 11,
          "material": 0,
          "mode": 4
        }
      ]
    }
  ],
  "nodes": [
    {
      "children": [
        1
      ],
      "matrix": [
        1.0,
        0.0,
        0.0,
        0.0,
        0.0,
        2.220446049250313e-16,
        -1.0,
        0.0,
        0.0,
        1.0,
        2.220446049250313e-16,
        0.0,
        0.0,
        0.0,
        0.0,
        1.0
      ],
      "name": "Sketchfab_model"
    },
    {
      "children": [
        2
      ],
      "matrix": [
        1.0,
        0.0,
        0.0,
        0.0,
        0.0,
        0.0,
        1.0,
        0.0,
        0.0,
        -1.0,
        0.0,
        0.0,
        0.0,
        0.0,
        0.0,
        1.0
      ],
      "name": "431b035523e84dbe8f903dabd838a167.fbx"
    },
    {
      "children": [
        3,
        5,
        7
      ],
      "name": "RootNode"
    },
    {
      "children": [
        4
      ],
      "name": "pCylinder10"
    },
    {
      "mesh": 0,
      "name": "pCylinder10_lambert1_0"
    },
    {
      "children": [
        6
      ],
      "name": "polySurface2"
    },
    {
      "mesh": 1,
      "name": "polySurface2_lambert1_0"
    },
    {
      "children": [
        8
      ],
      "name": "polySurface1"
    },
    {
      "mesh": 2,
      "name": "polySurface1_lambert1_0"
    }
  ],
  "scene": 0,
  "scenes": [
    {
      "name": "Sketchfab_Scene",
      "nodes": [
        0
      ]
    }
  ]
}
